<?xml version="1.0" encoding="utf-8"?>
<!-- Generator: Adobe Illustrator 21.0.2, SVG Export Plug-In . SVG Version: 6.00 Build 0)  -->
<svg version="1.1" id="Layer_1" xmlns="http://www.w3.org/2000/svg" xmlns:xlink="http://www.w3.org/1999/xlink" x="0px" y="0px"
	 viewBox="0 0 100 100" style="enable-background:new 0 0 100 100;" xml:space="preserve">
<style type="text/css">
	.st0{fill:#9D5025;}
	.st1{fill:#F58536;}
	.st2{fill:#FFFFFF;}
</style>
<title>Compute</title>
<g>
	<ellipse class="st0" cx="50" cy="52" rx="50" ry="48"/>
	<rect y="48" class="st0" width="100" height="3.9"/>
	<ellipse class="st1" cx="50" cy="48" rx="50" ry="48"/>
	<path class="st2" d="M12.3,52.8v-1.2c0.4-5.7,3.9-10.8,9.3-13.2c0.6-10.7,10.1-19,21.2-18.5c6.8,0.3,13,3.9,16.5,9.6
		c5.7-2.3,12.3,0.2,14.7,5.7c0.3,0.7,0.5,1.4,0.7,2.2c7.5,1.4,13,8.3,13,14.2v1.2c0,7.1-7.7,13.3-16.4,13.3H28.6
		C20,66.1,12.3,59.9,12.3,52.8z"/>
	<path class="st1" d="M60.3,34.6l-3.2,2.1l-1.6-3.4c-2.4-5.2-7.7-8.5-13.7-8.6c-8.3,0-15.1,6.5-15.1,14.5c0,0,0,0,0,0v2.7l-2.4,0.7
		c-3.9,1.5-6.6,5-6.9,9v1.2c0,3.9,4.9,8.4,11.3,8.4h42.7c6.3,0,11.2-4.5,11.2-8.4v-1.2c0-3.9-4.6-9.1-9.9-9.5l-2.9-0.2l-0.2-2.7
		c-0.1-3.2-2.9-5.7-6.2-5.6C62.3,33.6,61.2,34,60.3,34.6L60.3,34.6z"/>
</g>
</svg>
