<?xml version="1.0" encoding="utf-8"?>
<!-- Generator: Adobe Illustrator 21.0.2, SVG Export Plug-In . SVG Version: 6.00 Build 0)  -->
<svg version="1.1" xmlns="http://www.w3.org/2000/svg" xmlns:xlink="http://www.w3.org/1999/xlink" x="0px" y="0px"
	 viewBox="0 0 32 32" style="enable-background:new 0 0 32 32;" xml:space="preserve">
<style type="text/css">
	.st0{fill:#F6F6F6;}
	.st1{fill:#424242;}
	.st2{fill:#F0EFF1;}
</style>
<g id="outline">
	<path class="st0" d="M20,0C13.4,0,8,5.4,8,12c0,1.4,0.3,2.7,0.7,4H4.2L0,20.2v1.7l3,3V30h5v2h5.8l4.2-4.2v-1.7l-3-3v-0.3
		c1.5,0.7,3.2,1.1,5,1.1c6.6,0,12-5.4,12-12C32,5.4,26.6,0,20,0z"/>
</g>
<g id="icon_x5F_bg">
	<g>
		<polygon class="st1" points="16,27 13,30 11,30 13,28 5,28 5,26 13,26 11,24 13,24 		"/>
		<polygon class="st1" points="7,24 5,22 13,22 13,20 5,20 7,18 5,18 2,21 5,24 		"/>
		<path class="st1" d="M20,2c-5.5,0-10,4.5-10,10c0,2.3,0.8,4.3,2,6h3v2.7c1.5,0.9,3.2,1.3,5,1.3c5.5,0,10-4.5,10-10
			C30,6.5,25.5,2,20,2z M26.3,8h-2.4c-0.2-1-0.5-2.3-0.9-3.1C24.4,5.5,25.5,6.8,26.3,8z M20,4.3C20.4,4.5,21.2,6,21.7,8h-3.4
			C18.8,6,19.6,4.5,20,4.3z M12.3,12c0-0.8,0.1-1.3,0.3-2h3.1c-0.1,0.7-0.1,1.2-0.1,2c0,0.8,0,1.3,0.1,2h-3.1
			C12.4,13.3,12.3,12.8,12.3,12z M13.7,16h2.4c0.2,1,0.5,2.3,0.9,3.1C15.6,18.5,14.5,17.2,13.7,16z M16.1,8h-2.4
			c0.8-1.2,1.9-2.5,3.3-3.1C16.6,5.7,16.3,7,16.1,8z M20,19.7c-0.4-0.2-1.2-1.7-1.7-3.7h3.4C21.2,18,20.4,19.5,20,19.7z M22.1,14
			h-4.1c-0.1-0.7-0.1-1.2-0.1-2c0-0.8,0.1-1.3,0.1-2h4.1c0.1,0.7,0.1,1.2,0.1,2C22.2,12.8,22.1,13.3,22.1,14z M23.1,19.1
			c0.4-0.8,0.7-2.1,0.9-3.1h2.4C25.5,17.2,24.4,18.5,23.1,19.1z M24.3,14c0.1-0.7,0.1-1.2,0.1-2c0-0.8,0-1.3-0.1-2h3.1
			c0.2,0.7,0.3,1.2,0.3,2c0,0.8-0.1,1.3-0.3,2H24.3z"/>
	</g>
</g>
<g id="icon_x5F_fg">
	<path class="st2" d="M26.3,8h-2.4c-0.2-1-0.5-2.3-0.9-3.1C24.4,5.5,25.5,6.8,26.3,8 M27.4,10h-3.1c0.1,0.7,0.1,1.2,0.1,2
		s0,1.3-0.1,2h3.1c0.2-0.7,0.3-1.2,0.3-2S27.6,10.7,27.4,10 M20,19.7c0.4-0.2,1.2-1.7,1.7-3.7h-3.4C18.8,18,19.6,19.5,20,19.7
		 M22.2,12c0-0.8-0.1-1.3-0.1-2h-4.1c-0.1,0.7-0.1,1.2-0.1,2s0.1,1.3,0.1,2h4.1C22.1,13.3,22.2,12.8,22.2,12 M18.3,8h3.4
		c-0.5-2-1.3-3.5-1.7-3.7C19.6,4.5,18.8,6,18.3,8 M13.7,8h2.4c0.2-1,0.5-2.3,0.9-3.1C15.6,5.5,14.5,6.8,13.7,8 M15.6,12
		c0-0.8,0-1.3,0.1-2h-3.1c-0.2,0.7-0.3,1.2-0.3,2s0.1,1.3,0.3,2h3.1C15.6,13.3,15.6,12.8,15.6,12 M16.9,19.1
		c-0.4-0.8-0.7-2.1-0.9-3.1h-2.4C14.5,17.2,15.6,18.5,16.9,19.1 M26.3,16h-2.4c-0.2,1-0.5,2.3-0.9,3.1C24.4,18.5,25.5,17.2,26.3,16"
		/>
</g>
</svg>
