<?xml version="1.0" encoding="utf-8"?>
<!-- Generator: Adobe Illustrator 21.0.2, SVG Export Plug-In . SVG Version: 6.00 Build 0)  -->
<svg version="1.1" xmlns="http://www.w3.org/2000/svg" xmlns:xlink="http://www.w3.org/1999/xlink" x="0px" y="0px"
	 viewBox="0 0 16 16" style="enable-background:new 0 0 16 16;" xml:space="preserve">
<style type="text/css">
	.st0{opacity:0;fill:#F6F6F6;}
	.st1{fill:#F6F6F6;}
	.st2{fill:#424242;}
	.st3{fill:#F0EFF1;}
</style>
<g id="outline">
	<rect class="st0" width="16" height="16"/>
	<polygon class="st1" points="2,2.5 5.5,0 6.5,0 8,2.5 9.5,0 10.5,0 14,2.5 14,16 2,16 	"/>
</g>
<g id="icon_x5F_bg">
	<path class="st2" d="M12.2,3L9.8,1L8,4.5L6.2,1L3.9,3.1l1.9,1.1L6.9,5H3v10h10V5H9.2l1.1-0.8L12.2,3z M7,14H4v-3h3V14z M7,9H4V6h3
		V9z M12,14H9v-3h3V14z M12,9H9V6h3V9z"/>
</g>
<g id="icon_x5F_fg">
	<rect x="4" y="11" class="st3" width="3" height="3"/>
	<rect x="4" y="6" class="st3" width="3" height="3"/>
	<rect x="9" y="11" class="st3" width="3" height="3"/>
	<rect x="9" y="6" class="st3" width="3" height="3"/>
</g>
</svg>
